<?xml version="1.0" standalone="no"?>
<!DOCTYPE svg PUBLIC "-//W3C//DTD SVG 20010904//EN"
 "http://www.w3.org/TR/2001/REC-SVG-20010904/DTD/svg10.dtd">
<svg version="1.0" xmlns="http://www.w3.org/2000/svg"
 width="469.000000pt" height="531.000000pt" viewBox="0 0 469.000000 531.000000"
 preserveAspectRatio="xMidYMid meet">

<g transform="translate(0.000000,531.000000) scale(0.100000,-0.100000)"
fill="#000000" stroke="none">
<path d="M0 2655 l0 -2655 2345 0 2345 0 0 2655 0 2655 -2345 0 -2345 0 0
-2655z m2595 2205 c66 -40 421 -255 789 -477 367 -222 683 -415 702 -429 42
-32 89 -106 104 -164 9 -34 12 -295 11 -1045 -2 -1156 5 -1070 -95 -1171 -57
-56 -66 -61 -139 -78 -168 -39 -313 27 -381 173 -21 46 -21 50 -24 953 l-2
906 -578 350 c-317 192 -612 369 -654 393 -43 24 -78 47 -78 51 0 3 44 33 98
66 116 72 152 108 188 186 23 52 26 67 22 140 -5 87 -23 135 -75 197 -15 18
-23 30 -18 27 6 -3 64 -38 130 -78z m-1841 -864 c69 -34 129 -101 157 -175 21
-56 21 -58 20 -946 l-2 -890 78 -49 c43 -27 334 -204 648 -393 314 -190 574
-349 578 -353 4 -4 -32 -31 -80 -60 -48 -29 -105 -69 -126 -89 -130 -122 -136
-308 -14 -448 33 -38 31 -38 -38 6 -22 13 -366 222 -764 463 -399 242 -748
455 -777 474 -60 40 -108 105 -129 178 -22 75 -22 2018 0 2093 29 96 116 182
215 210 69 20 169 11 234 -21z"/>
</g>
</svg>
